<?xml version="1.0" encoding="UTF-8"?>
<svg id="Layer_1" xmlns="http://www.w3.org/2000/svg" xmlns:xlink="http://www.w3.org/1999/xlink" version="1.1" viewBox="0 0 355.04 331.2">
  <!-- Generator: Adobe Illustrator 29.5.1, SVG Export Plug-In . SVG Version: 2.1.0 Build 141)  -->
  <defs>
    <style>
      .st0, .st1, .st2 {
        fill: #231f20;
      }

      .st3 {
        fill: url(#linear-gradient);
      }

      .st4 {
        fill: none;
      }

      .st4, .st2, .st5 {
        stroke: #231f20;
        stroke-miterlimit: 10;
        stroke-width: .25px;
      }

      .st1 {
        font-family: USSR-STENCIL, 'USSR STENCIL';
        font-size: 48.09px;
      }

      .st5 {
        fill: url(#linear-gradient1);
      }
    </style>
    <linearGradient id="linear-gradient" x1="106.6" y1="46.1" x2="106.6" y2="269.68" gradientTransform="translate(37.27 289.26) scale(.95 -.98)" gradientUnits="userSpaceOnUse">
      <stop offset=".18" stop-color="#595a5c"/>
      <stop offset=".5" stop-color="#dbdcdc"/>
      <stop offset=".84" stop-color="#595a5c"/>
    </linearGradient>
    <linearGradient id="linear-gradient1" x1="285.72" y1="242.93" x2="285.72" y2="24.73" gradientTransform="matrix(1,0,0,1,0,0)" xlink:href="#linear-gradient"/>
  </defs>
  <text class="st1" transform="translate(24.23 304.54) scale(.52 1)"><tspan x="0" y="0">Leaders of the new school:</tspan></text>
  <g>
    <text/>
    <path class="st0" d="M73.88,76.88l-.02-.02c-.22-.31-.44-.6-.66-.75.33-.29.55-.6.88-1.04,3.97-5.18,5.95-12.61,5.95-21.21-.11-8.6-2.2-15.87-6.17-21.05-1.17-1.5-2.4-2.76-3.66-3.77-4.37-2.18-8.18-2.25-8.88-2.25h-27.56v13.14h23.59c.09,0,3.06,0,6.04,1.76.62.44,1.19.95,1.68,1.52.73.24,1.52.6,2.29,1.06,3.31,2.38,4.85,6.24,4.96,12.32,0,6.08-1.54,9.92-4.85,12.15-2.84,2.07-5.93,2.07-6.04,2.23h-27.67v12.99h23.59c.09,0,3.06,0,6.04,1.94.57.42,1.1.88,1.54,1.39.77.29,1.59.66,2.43,1.21,3.31,2.36,4.85,6.22,4.96,12.3,0,5.93-1.54,9.94-4.85,12.15-2.98,1.94-6.04,1.94-6.04,1.94h-27.67v13.14h23.7c1.32,0,10.25-.29,16.62-8.88,3.97-5.18,5.97-12.46,5.97-21.08-.13-8.58-2.2-16.01-6.17-21.19ZM81.09,41.06c-.31-.75-.66-1.48-1.04-2.16v2.16l1.43.93-.4-.93ZM80.8,84.47v32.65c2.14-4.59,3.2-10.16,3.2-16.47-.09-6.11-1.15-11.64-3.2-16.18ZM80.8,68.22v4.78c.71-1.5,1.28-3.09,1.72-4.78h-1.72ZM117.93,95.27h-.02l1.19,2.49-1.17-2.49ZM115.13,95.18l-1.17-2.51h-.02l-4.28-8.88h1.98c6.72-1.04,19.4-8.75,19.4-30.27,0-12.1-3.92-19.51-8.88-23.68l-.02-.02c-2.71-1.32-5.49-1.9-7.94-1.9h-30.2v13.14h26.24s2.54,0,4.96,1.63c.49.37,1.04.82,1.57,1.43.75.24,1.59.6,2.4,1.15,1.76,1.34,4.28,3.7,4.28,10.82,0,11.88-6.92,14.24-8.93,14.71h-29.74v58.38h7.61v-45.39h3.73l1.26,2.6h2.71l5.51,11.42,14.77,31.37h10.69l-15.57-33.25-.35-.75ZM131.79,39.89v32.7c1.96-4.28,3.22-9.7,3.22-16.49s-1.23-12.1-3.22-16.2ZM133.78,129.15l-1.85-3.95v3.95l2.67,1.74-.82-1.74ZM135.74,27.92v42.88l7.61-8.33V27.92h-7.61ZM171.46,87.91l-2.95-7.8-.02.02-.64-1.7-3.22-8.38,22.49-24.41-.07-13.34-31.33,34.9-.02.02-7.65,8.51v.02l-.6.66-11.55,12.63v40.1h7.58v-36.2l12.06-13.05,1.85,4.85,2.09-2.27,5.78,15.08,11.46,31.48,10.41.11-15.68-41.25ZM190.13,129.18l-.26-.68v.68l.35.22-.09-.22ZM190.97,27.92l-1.1,1.23v18.43l.77,1.1.44-.46-.11-20.31ZM200.49,76.09v-.02l-6.66-9.55v62.66h7.61v-51.74l-.95-1.34ZM239.78,28.07v64.66l-3.95-5.58v3l-42-59.22v19.22l13.05,18.72,8.05,11.4,32.34,45.86V28.07h-7.5ZM155.69,67.23l-7.65,8.51,7.72-8.4-.07-.11ZM31.68,140.33v12.99h6.75v-12.99h-6.75ZM79.72,140.33v15.57h1.54v-15.57h-1.54ZM47.88,140.33v101.26h7.61v-88.28h21.8v-12.99h-29.41ZM83.69,140.33v34.13h7.61v-34.13h-7.61ZM137.42,180.61v60.98l.73.46v-61.44h-.73ZM136.65,140.33v13.14l1.5.97v-14.11h-1.5ZM126.7,140.33v44.18h-43.01v57.06h7.58v-44.18h31.46v2.58h3.95v41.6h7.52v-101.24h-7.5ZM174.54,207.69h-.02l.75,1.54-.73-1.54ZM137.42,180.61v60.98h.73v-60.98h-.73ZM176.06,210.88l-.77-1.65h-.02l1.92,4.1h.02l-1.15-2.45ZM173.27,210.73l-1.17-2.43-.77-1.65h-.02l-.73-1.54h-.02l-4.28-8.91h1.98c6.72-1.04,19.4-8.75,19.4-30.27,0-12.15-3.97-19.56-8.95-23.7-2.71-1.32-5.49-1.9-7.91-1.9h-30.18v13.14h26.24s2.54,0,4.96,1.63c.49.37,1.04.84,1.57,1.43.75.22,1.57.6,2.38,1.15,1.76,1.34,4.3,3.7,4.3,10.82,0,11.88-6.94,14.24-8.91,14.68h-29.76v58.4h7.61v-45.39h3.75l1.23,2.58h2.73l4.28,8.91,15.98,33.91h10.69l-14.42-30.84.02-.02ZM137.42,241.59h.73v-60.98h-.73v60.98ZM188.81,153.19v30.89c1.72-4.1,2.82-9.24,2.82-15.57s-1.08-11.35-2.82-15.32ZM176.06,210.88l-.79-1.65,1.92,4.1h.02l.02-.02-1.17-2.43ZM212.44,226.56c-2.36-.95-4.32-2.58-6-4.92-6.5-9.06-6.2-25.97-6.2-26.13h.02v-54.83h-7.5v56.97c0,2.38-.22,23.88,9.37,37.24,1.61,2.25,3.35,4.14,5.27,5.67,2.45,1.26,5.11,2.03,7.98,2.29v-14.18c-1.08-.55-2.05-1.26-2.95-2.12ZM249.35,195.16v-54.52h-7.61v57.56c0,.13.33,17.06-6.17,26.1-2.16,3.15-5.03,5.03-8.51,5.67v12.15c5.05-1.52,9.39-4.74,12.92-9.7,9.59-13.36,9.37-34.86,9.37-37.26Z"/>
    <path class="st0" d="M135,131.75h-13.43l-3.97-2.58h13.45l-15.57-33.25-.35-.75-1.17-2.51h-.02l-4.28-8.88h1.98c6.72-1.04,19.4-8.75,19.4-30.27,0-12.1-3.92-19.51-8.88-23.68,3.66,1.79,7.21,4.98,9.63,10.05v32.7c-4.19,9.24-11.57,13.07-16.18,13.78h-2.01l4.3,8.91,1.19,2.49.33.75,12.5,26.7v3.95l2.67,1.74.4.86Z"/>
    <polygon class="st0" points="97.36 86.38 96.33 86.38 96.33 131.75 84.77 131.75 80.81 129.17 92.38 129.17 92.38 83.78 96.11 83.78 97.36 86.38"/>
    <path class="st0" d="M191.64,244.17h-13.45l-3.97-2.58h13.45l-14.42-30.84.02-.02-1.17-2.43-.77-1.65h-.02l-.73-1.54h-.02l-4.28-8.91h1.98c6.72-1.04,19.4-8.75,19.4-30.27,0-12.15-3.97-19.56-8.95-23.7,3.9,1.9,7.65,5.34,10.1,10.96v30.89c-4.12,9.92-11.84,13.98-16.58,14.71h-1.98l4.28,8.91.75,1.54,1.92,4.1h.02l14.42,30.84Z"/>
    <polygon class="st2" points="153.98 198.77 152.94 198.77 152.94 244.17 141.39 244.17 138.15 242.05 138.15 241.59 149 241.59 149 196.19 152.74 196.19 153.98 198.77"/>
    <polygon class="st0" points="122.74 197.38 122.74 199.96 95.25 199.96 95.25 244.14 83.69 244.14 79.73 241.56 91.28 241.56 91.28 197.38 122.74 197.38"/>
    <polygon class="st0" points="95.27 140.33 95.27 177.03 83.69 177.03 79.73 174.45 91.3 174.45 91.3 137.75 95.27 140.33"/>
    <polygon class="st0" points="137.42 180.61 137.42 241.59 138.15 242.05 138.15 244.14 126.69 244.14 122.74 241.56 134.2 241.56 134.2 137.75 136.65 140.33 136.65 153.47 138.15 154.44 138.15 180.61 137.42 180.61"/>
    <path class="st2" d="M173.38,156.53c-1.46-.48-2.58-.48-2.58-.48h-30.18l-2.47-1.61v-.97h28.71s2.54,0,4.96,1.63c.48.37,1.04.84,1.57,1.43Z"/>
    <path class="st0" d="M219.37,229.95v15.5c-4.5-.44-8.49-2.07-11.95-4.89,2.45,1.26,5.11,2.03,7.98,2.29v-15.48l3.97,2.58Z"/>
    <path class="st0" d="M212.45,226.55c-2.36-.95-4.32-2.58-6-4.92-6.5-9.06-6.2-25.97-6.2-26.13h.02v-57.41l3.97,2.58v57.41h-.02c0,.15-.31,17.06,6.2,26.13.64.88,1.3,1.68,2.03,2.34Z"/>
    <path class="st0" d="M243.95,234.99c-4.43,6.22-10.14,9.74-16.89,10.52l-3.97-2.58c1.37-.15,2.69-.44,3.97-.82,5.05-1.52,9.39-4.74,12.92-9.7,9.59-13.36,9.37-34.86,9.37-37.26v-57.12l3.97,2.6v57.1c0,2.4.22,23.9-9.37,37.26Z"/>
    <polygon class="st0" points="251.25 28.06 251.25 131.75 247.28 129.15 247.28 25.48 251.25 28.06"/>
    <polygon class="st0" points="205.39 80.01 205.39 131.75 193.84 131.75 190.22 129.41 190.22 129.39 190.14 129.17 201.45 129.17 201.45 77.43 200.5 76.08 200.5 76.06 193.84 66.51 189.87 60.82 193.84 63.43 204.47 78.64 204.47 78.66 205.39 80.01"/>
    <polygon class="st0" points="157.4 84.75 147.45 95.53 147.45 131.75 135.9 131.75 134.6 130.89 133.78 129.15 143.49 129.15 143.49 92.95 155.54 79.9 157.4 84.75"/>
    <polygon class="st0" points="235.84 87.15 235.84 90.15 193.84 30.93 189.87 25.33 193.84 27.91 235.84 87.15"/>
    <polygon class="st0" points="191.11 131.73 177.66 131.57 173.69 128.99 176.73 129.04 187.14 129.15 171.46 87.9 168.51 80.09 168.49 80.12 167.85 78.42 164.63 70.04 187.12 45.63 187.05 32.3 187.01 25.33 189.87 29.14 189.87 47.57 190.64 48.68 168.57 72.62 171.79 81.02 172.45 82.67 175.43 90.48 189.87 128.49 189.87 129.17 190.22 129.39 190.22 129.41 191.11 131.73"/>
    <polygon class="st0" points="147.32 27.91 147.32 65.04 135.75 77.69 131.8 75.11 135.75 70.79 143.35 62.46 143.35 25.33 147.32 27.91"/>
    <path class="st0" d="M65.06,43.21c-2.05-.71-3.68-.71-3.75-.71h-27.56l-3.97-2.58h27.56c.09,0,3.06,0,6.04,1.76.62.44,1.19.95,1.68,1.52Z"/>
    <path class="st2" d="M116.76,44.11c-1.46-.48-2.56-.48-2.56-.48h-30.2l-2.51-1.63v-.02l-.4-.93h29.15s2.54,0,4.96,1.63c.48.37,1.04.82,1.57,1.43Z"/>
    <path class="st0" d="M64.93,87.28c-1.98-.73-3.55-.73-3.62-.73h-27.56l-3.97-2.6h27.56c.09,0,3.06,0,6.04,1.94.57.42,1.1.88,1.54,1.39Z"/>
    <path class="st0" d="M84,56.44c0,4.26-.48,8.22-1.48,11.77h-1.72v4.78c-.75,1.7-1.7,3.24-2.76,4.65-.33.44-.55.75-.88,1.04.22.15.44.44.66.75l.02.02c1.15,1.5,2.14,3.17,2.95,5v32.65c-.77,1.68-1.7,3.22-2.76,4.61-6.39,8.6-15.32,8.88-16.62,8.88h-27.67l-3.97-2.58h27.67c1.32,0,10.25-.29,16.62-8.88,3.97-5.18,5.97-12.46,5.97-21.08-.13-8.58-2.2-16.01-6.17-21.19l-.02-.02c-.22-.31-.44-.6-.66-.75.33-.29.55-.6.88-1.04,3.97-5.18,5.95-12.61,5.95-21.21-.11-8.6-2.2-15.87-6.17-21.05-1.17-1.5-2.4-2.76-3.66-3.77,2.51,1.26,5.23,3.26,7.63,6.35.84,1.08,1.57,2.25,2.23,3.51v2.16l1.43.93v.02c1.59,4.19,2.45,9.04,2.51,14.44Z"/>
    <polygon class="st0" points="79.73 140.33 79.73 155.89 59.44 155.89 59.44 244.17 47.89 244.17 43.92 241.59 55.5 241.59 55.5 153.31 77.3 153.31 77.3 137.75 79.73 140.33"/>
    <polygon class="st0" points="42.38 140.33 42.38 155.89 31.69 155.89 27.74 153.31 38.43 153.31 38.43 137.75 42.38 140.33"/>
    <path class="st0" d="M258,245.45l2.54-5.2-2.6,5.16-3.99-2.47,2.62-5.2-2.54,5.2,16.93-28.77,47.16-80.16c-18.3-31.37-36.53-62.75-55.45-93.94-3.09-5.11-6.22-10.23-9.35-15.32l3.97,2.51c22.29,36.25,43.5,72.75,64.8,109.26l-64.09,108.93Z"/>
    <path class="st2" d="M270.96,214.16l32.36-77.61c-13.62-32.14-27.14-64.33-40.65-96.5,18.92,31.2,37.15,62.57,55.45,93.94l-47.16,80.16Z"/>
    <path class="st3" d="M73.88,76.88l-.02-.02c-.22-.31-.44-.6-.66-.75.33-.29.55-.6.88-1.04,3.97-5.18,5.95-12.61,5.95-21.21-.11-8.6-2.2-15.87-6.17-21.05-1.17-1.5-2.4-2.76-3.66-3.77-5.78-4.74-11.95-4.83-12.85-4.83h-27.56v15.72h27.56c.09,0,3.06,0,6.04,1.76.62.44,1.19.95,1.68,1.52,2.16,2.4,3.2,5.86,3.28,10.8,0,6.08-1.54,9.92-4.85,12.15-2.84,2.07-5.93,2.07-6.04,2.23h-27.67v15.57h27.56c.09,0,3.06,0,6.04,1.94.57.42,1.1.88,1.54,1.39,2.25,2.4,3.33,5.91,3.42,10.94,0,5.93-1.54,9.92-4.85,12.15-2.95,1.94-6.04,1.94-6.04,1.94h-27.67v15.72h27.67c1.32,0,10.25-.29,16.62-8.88,3.97-5.18,5.97-12.46,5.97-21.08-.13-8.58-2.2-16.01-6.17-21.19ZM113.96,92.67h-.02l1.19,2.51-1.17-2.51ZM115.13,95.18l-1.19-2.51-4.28-8.88h1.98c6.72-1.04,19.4-8.75,19.4-30.27,0-12.1-3.92-19.51-8.88-23.68l-.02-.02c-3.81-3.22-8.25-4.48-11.91-4.48h-30.18v15.72h30.18s2.54,0,4.96,1.63c.49.37,1.04.82,1.57,1.43,1.41,1.59,2.73,4.26,2.73,9.39,0,11.88-6.94,14.24-8.93,14.71h-29.76v60.96h11.57v-45.39h3.73l1.26,2.6,4.26,8.84,15.98,33.95h13.45l-15.57-33.25-.35-.75ZM131.79,25.34v49.78l3.95-4.32,7.61-8.33V25.34h-11.55ZM171.46,87.91l-2.95-7.8-.02.02-.64-1.7-3.22-8.38,22.49-24.41-.07-13.34-.04-6.97-35.25,39.29-.02.02-7.54,8.42-.11.11-.6.66-11.55,12.63v42.68h11.55v-36.2l12.06-13.05,1.85,4.85,3.92,10.21,12.37,34.04,3.04.04,10.41.11-15.68-41.25ZM200.49,76.09v-.02l-6.66-9.55-3.97-5.69v68.35h11.57v-51.74l-.95-1.34ZM235.83,25.49v64.66l-42-59.22-3.97-5.6v22.25l.77,1.1,12.28,17.62,8.05,11.4,36.31,51.46V25.49h-11.44ZM151.73,64.65l-7.54,8.42,7.61-8.31-.07-.11ZM27.73,137.75v15.57h10.69v-15.57h-10.69ZM43.92,137.75v103.84h11.57v-88.28h21.8v-15.57h-33.38ZM79.72,137.75v36.71h11.57v-36.71h-11.57ZM122.73,137.75v44.18h-43.01v59.64h11.55v-44.18h31.46v44.18h11.46v-103.82h-11.46ZM170.58,205.11h-.02l.75,1.54-.73-1.54ZM172.1,208.3l-.77-1.65h-.02l-.75-1.54-4.28-8.91h1.98c6.72-1.04,19.4-8.75,19.4-30.27,0-12.15-3.97-19.56-8.95-23.7-3.81-3.2-8.22-4.48-11.86-4.48h-30.2v15.72h30.2s2.54,0,4.96,1.63c.49.37,1.04.84,1.57,1.43,1.41,1.59,2.73,4.23,2.73,9.39,0,11.88-6.97,14.24-8.93,14.68h-29.76v60.98h11.57v-45.39h3.75l1.23,2.58,3.06,6.33,17.17,36.49h13.45l-14.42-30.84-1.15-2.45ZM172.1,208.3l-.79-1.65,1.92,4.1h.02l.02-.02-1.17-2.43ZM212.44,226.56c-2.36-.95-4.32-2.58-6-4.92-6.5-9.06-6.2-25.97-6.2-26.13h.02v-57.41h-11.46v56.97c0,2.38-.22,23.88,9.37,37.24,2.67,3.73,5.73,6.5,9.24,8.25,2.45,1.26,5.11,2.03,7.98,2.29v-15.48c-1.04-.18-2.03-.44-2.95-.82ZM249.35,195.16v-57.12h-11.57v57.59c0,.13.33,17.06-6.15,26.1-2.18,3.15-5.05,5.03-8.53,5.67v15.54c1.37-.15,2.69-.44,3.97-.82,5.05-1.52,9.39-4.74,12.92-9.7,9.59-13.36,9.37-34.86,9.37-37.26Z"/>
    <path class="st5" d="M318.12,134l-47.16,80.16-16.93,28.77,2.54-5.2-2.62,5.2,45.42-108.89c-15.43-36.42-30.73-72.87-46.03-109.31,3.13,5.09,6.26,10.21,9.35,15.32,18.92,31.2,37.15,62.57,55.45,93.94Z"/>
    <line class="st4" x1="258" y1="245.45" x2="257.93" y2="245.4"/>
    <path class="st2" d="M187.01,25.32"/>
    <path class="st4" d="M189.87,28.52"/>
    <path class="st4" d="M187.24,24.67"/>
    <path class="st4" d="M193.57,27.14"/>
    <path class="st4" d="M189.59,24.52"/>
    <path class="st4" d="M79.41,139.98"/>
    <path class="st4" d="M77.52,137.51"/>
    <path class="st4" d="M189.87,29.14"/>
    <path class="st4" d="M187.24,24.67"/>
    <path class="st4" d="M193.57,27.14"/>
    <path class="st4" d="M189.59,24.52"/>
  </g>
</svg>